# xmcd
#
# Track frame offsets: 
#        150
#        34067
#        68448
#        93274
#        122580
#        139388
#        175653
#        202578
#
# Disc length: 3068 seconds
#
# Revision: 3
# Processed by: cddbd v1.5.2PL0 Copyright (c) Steve Scherf et al.
# Submitted via: ExactAudioCopyFreeDBPlugin 1.0
#
DISCID=5e0bfa08
DTITLE=Giovanni Mirabassi Quartet - No Way Out
DYEAR=2015
DGENRE=Jazz
TTITLE0=No Way Out
TTITLE1=The Snow White Syndrome
TTITLE2=Two Finger Snaps
TTITLE3=L'Audace
TTITLE4=Palm'air
TTITLE5=What Was That Dream Abour
TTITLE6=Canzone
TTITLE7=Il Bandolero Stanco
EXTD=YEAR: 2014
EXTT0=
EXTT1=
EXTT2=
EXTT3=
EXTT4=
EXTT5=
EXTT6=
EXTT7=
PLAYORDER=
